<svg width="33" height="33" xmlns="http://www.w3.org/2000/svg" viewBox="0 0 100 100">
  <!-- èƒŒæ™¯æ˜Ÿç©º -->
  <circle cx="20" cy="15" r="1" fill="#B0E0E6" opacity="0.8"/>
  <circle cx="80" cy="20" r="0.8" fill="#B0E0E6" opacity="0.9"/>
  <circle cx="15" cy="85" r="0.6" fill="#B0E0E6" opacity="0.7"/>
  <circle cx="85" cy="80" r="1.2" fill="#B0E0E6" opacity="0.8"/>
  
  <!-- æ˜Ÿçƒå…‰çŽ¯ï¼ˆç§»åˆ°æ›´è¿œçš„ä½ç½®ï¼Œé¿å…é®æŒ¡æ˜Ÿçƒï¼‰ -->
  <ellipse cx="50" cy="50" rx="50" ry="12" fill="none" stroke="#20B2AA" stroke-width="2" opacity="0.6" transform="rotate(-25 50 50)"/>
  <ellipse cx="50" cy="50" rx="53" ry="10" fill="none" stroke="#98FB98" stroke-width="1.5" opacity="0.5" transform="rotate(-25 50 50)"/>
  
  <!-- ä¸»æ˜Ÿçƒ -->
  <circle cx="50" cy="50" r="28" fill="#4682B4"/>
  
  <!-- ðŸ˜„è¡¨æƒ… -->
  <!-- å·¦çœ¼ï¼ˆå¼¯æ›²çš„å¼€å¿ƒçœ¼ç›ï¼‰ -->
  <path d="M 38 40 Q 42 36 46 40" stroke="#000000" stroke-width="3" fill="none" stroke-linecap="round"/>
  
  <!-- å³çœ¼ï¼ˆå¼¯æ›²çš„å¼€å¿ƒçœ¼ç›ï¼‰ -->
  <path d="M 54 40 Q 58 36 62 40" stroke="#000000" stroke-width="3" fill="none" stroke-linecap="round"/>
  
  <!-- å¤§å¤§çš„å¼€å¿ƒå˜´å·´ -->
  <path d="M 40 52 Q 50 62 60 52" stroke="#000000" stroke-width="3" fill="none" stroke-linecap="round"/>
  
  <!-- è£…é¥°å°æ˜Ÿæ˜Ÿ -->
  <g transform="translate(25,25)">
    <path d="M0,-2 L0.8,0.8 L2,0 L0.8,0.8 L0,2 L-0.8,0.8 L-2,0 L-0.8,0.8 Z" fill="#FFD700" opacity="0.9"/>
  </g>
  <g transform="translate(75,30) scale(0.8)">
    <path d="M0,-2 L0.8,0.8 L2,0 L0.8,0.8 L0,2 L-0.8,0.8 L-2,0 L-0.8,0.8 Z" fill="#FFA500" opacity="0.8"/>
  </g>
  <g transform="translate(20,75) scale(0.6)">
    <path d="M0,-2 L0.8,0.8 L2,0 L0.8,0.8 L0,2 L-0.8,0.8 L-2,0 L-0.8,0.8 Z" fill="#87CEEB" opacity="0.7"/>
  </g>
  <g transform="translate(80,75) scale(0.7)">
    <path d="M0,-2 L0.8,0.8 L2,0 L0.8,0.8 L0,2 L-0.8,0.8 L-2,0 L-0.8,0.8 Z" fill="#98FB98" opacity="0.8"/>
  </g>
</svg>